<mxfile host="app.diagrams.net" modified="2021-04-09T16:22:09.024Z" agent="5.0 (Windows NT 10.0; Win64; x64) AppleWebKit/537.36 (KHTML, like Gecko) Chrome/89.0.4389.114 Safari/537.36" etag="Wz1sMY9T2Hcb0p_EE7Wg" version="14.5.9" type="github">
  <diagram id="qDMEYpOsXJCoP1dF4ED4" name="Page-1">
    <mxGraphModel dx="1422" dy="761" grid="1" gridSize="10" guides="1" tooltips="1" connect="1" arrows="1" fold="1" page="1" pageScale="1" pageWidth="850" pageHeight="1100" math="0" shadow="0">
      <root>
        <mxCell id="0" />
        <mxCell id="1" parent="0" />
        <mxCell id="i3VJmlXn5cS3IIKBHjPB-1" value="" style="rounded=0;whiteSpace=wrap;html=1;" vertex="1" parent="1">
          <mxGeometry x="340" y="110" width="10" height="600" as="geometry" />
        </mxCell>
        <mxCell id="i3VJmlXn5cS3IIKBHjPB-2" value="" style="rounded=0;whiteSpace=wrap;html=1;" vertex="1" parent="1">
          <mxGeometry x="760" y="110" width="10" height="600" as="geometry" />
        </mxCell>
        <mxCell id="i3VJmlXn5cS3IIKBHjPB-3" value="Client" style="text;html=1;strokeColor=none;fillColor=none;align=center;verticalAlign=middle;whiteSpace=wrap;rounded=0;" vertex="1" parent="1">
          <mxGeometry x="745" y="80" width="40" height="20" as="geometry" />
        </mxCell>
        <mxCell id="i3VJmlXn5cS3IIKBHjPB-4" value="" style="endArrow=classic;html=1;" edge="1" parent="1">
          <mxGeometry width="50" height="50" relative="1" as="geometry">
            <mxPoint x="360" y="160" as="sourcePoint" />
            <mxPoint x="750" y="160" as="targetPoint" />
          </mxGeometry>
        </mxCell>
        <mxCell id="i3VJmlXn5cS3IIKBHjPB-5" value="Key Established, Mode Selected" style="text;html=1;strokeColor=none;fillColor=none;align=center;verticalAlign=middle;whiteSpace=wrap;rounded=0;" vertex="1" parent="1">
          <mxGeometry x="461" y="130" width="200" height="20" as="geometry" />
        </mxCell>
        <mxCell id="i3VJmlXn5cS3IIKBHjPB-6" value="" style="endArrow=classic;html=1;" edge="1" parent="1">
          <mxGeometry width="50" height="50" relative="1" as="geometry">
            <mxPoint x="745" y="230" as="sourcePoint" />
            <mxPoint x="355" y="230" as="targetPoint" />
          </mxGeometry>
        </mxCell>
        <mxCell id="i3VJmlXn5cS3IIKBHjPB-7" value="Ready for use" style="text;html=1;strokeColor=none;fillColor=none;align=center;verticalAlign=middle;whiteSpace=wrap;rounded=0;" vertex="1" parent="1">
          <mxGeometry x="500" y="200" width="120" height="20" as="geometry" />
        </mxCell>
        <mxCell id="i3VJmlXn5cS3IIKBHjPB-8" value="" style="endArrow=classic;html=1;" edge="1" parent="1">
          <mxGeometry width="50" height="50" relative="1" as="geometry">
            <mxPoint x="360" y="300" as="sourcePoint" />
            <mxPoint x="750" y="300" as="targetPoint" />
          </mxGeometry>
        </mxCell>
        <mxCell id="i3VJmlXn5cS3IIKBHjPB-9" value="Type/Paste input into box" style="text;html=1;strokeColor=none;fillColor=none;align=center;verticalAlign=middle;whiteSpace=wrap;rounded=0;" vertex="1" parent="1">
          <mxGeometry x="480" y="270" width="150" height="20" as="geometry" />
        </mxCell>
        <mxCell id="i3VJmlXn5cS3IIKBHjPB-10" value="" style="endArrow=classic;html=1;" edge="1" parent="1">
          <mxGeometry width="50" height="50" relative="1" as="geometry">
            <mxPoint x="360" y="360" as="sourcePoint" />
            <mxPoint x="750" y="360" as="targetPoint" />
          </mxGeometry>
        </mxCell>
        <mxCell id="i3VJmlXn5cS3IIKBHjPB-11" value="Click &quot;Translate&quot; button" style="text;html=1;strokeColor=none;fillColor=none;align=center;verticalAlign=middle;whiteSpace=wrap;rounded=0;" vertex="1" parent="1">
          <mxGeometry x="460" y="330" width="200" height="20" as="geometry" />
        </mxCell>
        <mxCell id="i3VJmlXn5cS3IIKBHjPB-14" value="&lt;font style=&quot;font-size: 20px&quot;&gt;ChaCha20 General Use Case Sequence Diagram&lt;/font&gt;" style="text;html=1;strokeColor=none;fillColor=none;align=center;verticalAlign=middle;whiteSpace=wrap;rounded=0;" vertex="1" parent="1">
          <mxGeometry x="20" y="80" width="280" height="150" as="geometry" />
        </mxCell>
        <mxCell id="i3VJmlXn5cS3IIKBHjPB-16" value="Return plain/ciphertext in other box" style="text;html=1;strokeColor=none;fillColor=none;align=center;verticalAlign=middle;whiteSpace=wrap;rounded=0;" vertex="1" parent="1">
          <mxGeometry x="461" y="390" width="200" height="20" as="geometry" />
        </mxCell>
        <mxCell id="i3VJmlXn5cS3IIKBHjPB-18" value="User" style="shape=umlActor;verticalLabelPosition=bottom;verticalAlign=top;html=1;outlineConnect=0;" vertex="1" parent="1">
          <mxGeometry x="330" y="20" width="30" height="60" as="geometry" />
        </mxCell>
        <mxCell id="i3VJmlXn5cS3IIKBHjPB-19" value="" style="endArrow=classic;html=1;" edge="1" parent="1">
          <mxGeometry width="50" height="50" relative="1" as="geometry">
            <mxPoint x="750" y="420" as="sourcePoint" />
            <mxPoint x="360" y="420" as="targetPoint" />
          </mxGeometry>
        </mxCell>
        <mxCell id="i3VJmlXn5cS3IIKBHjPB-20" value="" style="endArrow=classic;html=1;" edge="1" parent="1">
          <mxGeometry width="50" height="50" relative="1" as="geometry">
            <mxPoint x="360" y="540" as="sourcePoint" />
            <mxPoint x="750" y="540" as="targetPoint" />
          </mxGeometry>
        </mxCell>
        <mxCell id="i3VJmlXn5cS3IIKBHjPB-21" value="&lt;font style=&quot;font-size: 18px&quot;&gt;Keyboard/Clipboard input/output&lt;/font&gt;" style="text;html=1;strokeColor=none;fillColor=none;align=center;verticalAlign=middle;whiteSpace=wrap;rounded=0;" vertex="1" parent="1">
          <mxGeometry x="90" y="280" width="230" height="60" as="geometry" />
        </mxCell>
        <mxCell id="i3VJmlXn5cS3IIKBHjPB-22" value="&lt;font style=&quot;font-size: 18px&quot;&gt;File input/output&lt;/font&gt;" style="text;html=1;strokeColor=none;fillColor=none;align=center;verticalAlign=middle;whiteSpace=wrap;rounded=0;" vertex="1" parent="1">
          <mxGeometry x="90" y="570" width="230" height="60" as="geometry" />
        </mxCell>
        <mxCell id="i3VJmlXn5cS3IIKBHjPB-23" value="Click &quot;Select File&quot; button" style="text;html=1;strokeColor=none;fillColor=none;align=center;verticalAlign=middle;whiteSpace=wrap;rounded=0;" vertex="1" parent="1">
          <mxGeometry x="461" y="510" width="200" height="20" as="geometry" />
        </mxCell>
        <mxCell id="i3VJmlXn5cS3IIKBHjPB-26" value="" style="endArrow=classic;html=1;" edge="1" parent="1">
          <mxGeometry width="50" height="50" relative="1" as="geometry">
            <mxPoint x="360" y="599.5" as="sourcePoint" />
            <mxPoint x="750" y="599.5" as="targetPoint" />
          </mxGeometry>
        </mxCell>
        <mxCell id="i3VJmlXn5cS3IIKBHjPB-27" value="Select file from device" style="text;html=1;strokeColor=none;fillColor=none;align=center;verticalAlign=middle;whiteSpace=wrap;rounded=0;" vertex="1" parent="1">
          <mxGeometry x="461" y="570" width="200" height="20" as="geometry" />
        </mxCell>
        <mxCell id="i3VJmlXn5cS3IIKBHjPB-28" value="Return ciphertext in output file&lt;br&gt;or plaintext in text box" style="text;html=1;strokeColor=none;fillColor=none;align=center;verticalAlign=middle;whiteSpace=wrap;rounded=0;" vertex="1" parent="1">
          <mxGeometry x="461" y="630" width="200" height="20" as="geometry" />
        </mxCell>
        <mxCell id="i3VJmlXn5cS3IIKBHjPB-29" value="" style="endArrow=classic;html=1;" edge="1" parent="1">
          <mxGeometry width="50" height="50" relative="1" as="geometry">
            <mxPoint x="755" y="670" as="sourcePoint" />
            <mxPoint x="365" y="670" as="targetPoint" />
          </mxGeometry>
        </mxCell>
      </root>
    </mxGraphModel>
  </diagram>
</mxfile>
